<?xml version="1.0" encoding="UTF-8" standalone="no"?>
<svg
   width="310"
   height="310"
   viewBox="0 0 310 310"
   fill="none"
   version="1.1"
   id="svg1"
   sodipodi:docname="luduvo-api-wrapper-logo-v2.svg"
   inkscape:version="1.4.3 (0d15f75, 2025-12-25)"
   xmlns:inkscape="http://www.inkscape.org/namespaces/inkscape"
   xmlns:sodipodi="http://sodipodi.sourceforge.net/DTD/sodipodi-0.dtd"
   xmlns="http://www.w3.org/2000/svg"
   xmlns:svg="http://www.w3.org/2000/svg">
  <defs
     id="defs1">
    <linearGradient
       id="linearGradient2-1"
       inkscape:swatch="gradient">
      <stop
         style="stop-color:#000000;stop-opacity:1;"
         offset="0"
         id="stop2" />
      <stop
         style="stop-color:#000000;stop-opacity:0;"
         offset="1"
         id="stop3" />
    </linearGradient>
  </defs>
  <sodipodi:namedview
     id="namedview1"
     pagecolor="#ffffff"
     bordercolor="#000000"
     borderopacity="0.25"
     inkscape:showpageshadow="2"
     inkscape:pageopacity="0.0"
     inkscape:pagecheckerboard="0"
     inkscape:deskcolor="#d1d1d1"
     inkscape:zoom="0.47045411"
     inkscape:cx="-172.17407"
     inkscape:cy="-100.96628"
     inkscape:window-width="1920"
     inkscape:window-height="1027"
     inkscape:window-x="-8"
     inkscape:window-y="-8"
     inkscape:window-maximized="1"
     inkscape:current-layer="layer1" />
  <g
     inkscape:groupmode="layer"
     id="layer2"
     inkscape:label="Layer 2">
    <path
       style="fill:#3974b8;fill-opacity:1;stroke-width:4.53607;stroke:#3974b8;stroke-opacity:1"
       d="m 128.87242,210.60264 c -6.92231,-0.49846 -11.59634,-1.82798 -15.6363,-4.44773 -6.20995,-4.02688 -10.8967,-10.26128 -12.6059,-16.76859 -1.294483,-4.92841 -1.486293,-10.34404 -1.331342,-37.58965 0.141452,-24.87195 0.191311,-26.47807 0.922122,-29.70461 1.9682,-8.68958 8.27087,-16.40859 16.38129,-20.0625 5.67762,-2.557881 11.40495,-3.006294 38.39771,-3.006294 26.99276,0 32.72009,0.448413 38.39771,3.006294 7.6655,3.45346 14.11671,11.02007 16.04576,18.82004 1.13349,4.5832 1.33714,9.78442 1.33714,34.1504 0,29.57615 -0.28804,33.25164 -3.04542,38.86067 -4.41287,8.97658 -12.3416,14.75314 -22.49687,16.39034 -3.38128,0.54511 -49.66883,0.83388 -56.3659,0.35163 z"
       id="path2" />
  </g>
  <g
     inkscape:groupmode="layer"
     id="layer1"
     inkscape:label="Layer 1">
    <path
       fill-rule="evenodd"
       clip-rule="evenodd"
       d="m 225.08519,20.475017 c 35.49203,-15.4150126 53.24006,-23.1235695 64.17507,-19.65375226 9.48,3.00919836 16.90902,10.43814626 19.91804,19.91885326 3.471,10.934509 -4.23804,28.681929 -19.65304,64.175156 L 267.56124,135.4871 c -3.12301,7.19103 -4.68398,10.78703 -5.30199,14.51802 -0.54703,3.30701 -0.546,6.68201 0,9.98902 0.61697,3.73201 2.17898,7.32801 5.30199,14.51801 l 21.96402,50.57405 c 15.415,35.49402 23.12404,53.24105 19.65304,64.17506 -3.00902,9.481 -10.43804,16.908 -19.91804,19.91703 -10.93501,3.46999 -28.68304,-4.23603 -64.17507,-19.65203 l -50.57303,-21.96502 c -7.19,-3.12301 -10.78599,-4.68501 -14.517,-5.30201 -3.30803,-0.54703 -6.68202,-0.54703 -9.99003,0 -3.731,0.61698 -7.32699,2.179 -14.51702,5.30201 L 84.915481,289.52626 C 49.422547,304.94226 31.674928,312.64828 20.74042,309.17829 11.259912,306.16926 3.8308744,298.74226 0.82155466,289.26126 -2.6490718,278.32725 5.0599254,260.58022 20.475319,225.0862 l 21.963719,-50.57405 c 3.122904,-7.19 4.684504,-10.786 5.301603,-14.51801 0.546905,-3.30701 0.546905,-6.68201 0,-9.98902 -0.617099,-3.73099 -2.178599,-7.32699 -5.301603,-14.51802 L 20.475319,84.915274 C 5.0601053,49.422047 -2.6485715,31.674627 0.82155466,20.740118 3.830754,11.259411 11.259712,3.8304631 20.74042,0.82126474 31.674928,-2.6485726 49.422745,5.0600044 84.915481,20.475017 l 50.572629,21.963719 c 7.19003,3.123005 10.78602,4.684506 14.51702,5.301606 3.30801,0.546906 6.682,0.546906 9.99003,0 3.73101,-0.617098 7.327,-2.178601 14.517,-5.301606 z m -77.22806,78.399771 c -17.145,0 -25.71802,-10e-5 -32.26603,3.336322 -5.75999,2.93496 -10.44501,7.61797 -13.37998,13.37796 -3.336334,6.54802 -3.336034,15.12205 -3.336034,32.26804 v 14.28603 c 0,17.14504 -1.9e-4,25.71704 3.336034,32.26606 2.93497,5.75998 7.61999,10.444 13.37998,13.37898 6.54801,3.33704 15.12103,3.33704 32.26603,3.33704 h 14.28603 c 17.14504,0 25.71803,0 32.26604,-3.33704 5.75999,-2.93498 10.44502,-7.619 13.37997,-13.37898 3.33606,-6.54902 3.33606,-15.12102 3.33606,-32.26606 v -14.28603 c 0,-17.14599 0,-25.72002 -3.33606,-32.26804 -2.93495,-5.75999 -7.61998,-10.443 -13.37997,-13.37796 -6.54801,-3.336422 -15.121,-3.336322 -32.26604,-3.336322 z"
       fill="white"
       id="path1"
       style="mix-blend-mode:normal;fill:#ffd000;fill-opacity:1;stroke:none;stroke-width:2.99995;stroke-linecap:butt;stroke-linejoin:bevel;stroke-dasharray:none;stroke-opacity:1;paint-order:markers fill stroke" />
  </g>
</svg>
